<?xml version="1.0" standalone="no"?>
<svg xmlns:xlink="http://www.w3.org/1999/xlink" id="wave" style="transform:rotate(180deg); transition: 0.3s" viewBox="0 0 1440 100" version="1.1" xmlns="http://www.w3.org/2000/svg"><defs><linearGradient id="sw-gradient-0" x1="0" x2="0" y1="1" y2="0"><stop stop-color="rgba(255, 249, 234, 1)" offset="0%"/><stop stop-color="rgba(255, 249, 234, 1)" offset="100%"/></linearGradient></defs><path style="transform:translate(0, 0px); opacity:1" fill="url(#sw-gradient-0)" d="M0,0L24,6.7C48,13,96,27,144,41.7C192,57,240,73,288,76.7C336,80,384,70,432,58.3C480,47,528,33,576,33.3C624,33,672,47,720,50C768,53,816,47,864,36.7C912,27,960,13,1008,13.3C1056,13,1104,27,1152,41.7C1200,57,1248,73,1296,76.7C1344,80,1392,70,1440,68.3C1488,67,1536,73,1584,65C1632,57,1680,33,1728,26.7C1776,20,1824,30,1872,43.3C1920,57,1968,73,2016,71.7C2064,70,2112,50,2160,38.3C2208,27,2256,23,2304,23.3C2352,23,2400,27,2448,23.3C2496,20,2544,10,2592,16.7C2640,23,2688,47,2736,61.7C2784,77,2832,83,2880,80C2928,77,2976,63,3024,58.3C3072,53,3120,57,3168,51.7C3216,47,3264,33,3312,28.3C3360,23,3408,27,3432,28.3L3456,30L3456,100L3432,100C3408,100,3360,100,3312,100C3264,100,3216,100,3168,100C3120,100,3072,100,3024,100C2976,100,2928,100,2880,100C2832,100,2784,100,2736,100C2688,100,2640,100,2592,100C2544,100,2496,100,2448,100C2400,100,2352,100,2304,100C2256,100,2208,100,2160,100C2112,100,2064,100,2016,100C1968,100,1920,100,1872,100C1824,100,1776,100,1728,100C1680,100,1632,100,1584,100C1536,100,1488,100,1440,100C1392,100,1344,100,1296,100C1248,100,1200,100,1152,100C1104,100,1056,100,1008,100C960,100,912,100,864,100C816,100,768,100,720,100C672,100,624,100,576,100C528,100,480,100,432,100C384,100,336,100,288,100C240,100,192,100,144,100C96,100,48,100,24,100L0,100Z"/></svg>